<svg xmlns="http://www.w3.org/2000/svg" viewBox="0 0 57.95 16.99"><defs><style>.cls-1{fill:#fff;}.cls-2{opacity:0.85;}.cls-3{fill:#339cd7;}</style></defs><g id="Layer_2" data-name="Layer 2"><g id="Layer_1-2" data-name="Layer 1"><rect class="cls-1" width="57.95" height="16.99" rx="7.22"/><g class="cls-2"><path class="cls-3" d="M26.73,7.85a1.81,1.81,0,0,1-.9-.21,1.46,1.46,0,0,1-.6-.58A1.55,1.55,0,0,1,25,6.22a1.85,1.85,0,0,1,.12-.67A1.55,1.55,0,0,1,25.47,5,1.41,1.41,0,0,1,26,4.67a1.71,1.71,0,0,1,.65-.12,1.53,1.53,0,0,1,.6.12A1.43,1.43,0,0,1,27.7,5a1.36,1.36,0,0,1,.31.5,1.6,1.6,0,0,1,.1.63v.26H25.55l-.14-.52h2L27.3,6V5.85a.54.54,0,0,0-.1-.3.59.59,0,0,0-.24-.2.66.66,0,0,0-.32-.07.88.88,0,0,0-.45.1.74.74,0,0,0-.28.3,1.14,1.14,0,0,0-.09.48,1,1,0,0,0,.12.5.78.78,0,0,0,.35.32,1.09,1.09,0,0,0,.53.12A.92.92,0,0,0,27.2,7a1.33,1.33,0,0,0,.37-.22l.41.57a1.7,1.7,0,0,1-.38.26,2.5,2.5,0,0,1-.43.16A2.28,2.28,0,0,1,26.73,7.85Z"/><path class="cls-3" d="M29.93,7.85a1.2,1.2,0,0,1-.72-.22,1.49,1.49,0,0,1-.5-.58,1.84,1.84,0,0,1-.19-.86,1.74,1.74,0,0,1,.19-.84,1.63,1.63,0,0,1,.51-.59A1.36,1.36,0,0,1,30,4.55a1.18,1.18,0,0,1,.43.07,1.25,1.25,0,0,1,.34.19,1.27,1.27,0,0,1,.25.27,1.14,1.14,0,0,1,.15.34l-.18,0V4.62h.84V7.79h-.86V7l.2,0a1.37,1.37,0,0,1-.16.32,1.15,1.15,0,0,1-.27.27,1.28,1.28,0,0,1-.35.18A1.23,1.23,0,0,1,29.93,7.85Zm.23-.74A.82.82,0,0,0,30.58,7a.8.8,0,0,0,.28-.32,1.22,1.22,0,0,0,.1-.49,1.16,1.16,0,0,0-.1-.47.8.8,0,0,0-.28-.32.74.74,0,0,0-.42-.12.71.71,0,0,0-.41.12.8.8,0,0,0-.28.32,1,1,0,0,0-.1.47,1.07,1.07,0,0,0,.1.49.8.8,0,0,0,.28.32A.78.78,0,0,0,30.16,7.11Z"/><path class="cls-3" d="M32.52,7.79V7.25l1.67-2.17v.24H32.52v-.7h2.53v.55l-1.6,2.12,0-.2h1.67v.7Z"/><path class="cls-3" d="M35.69,7.79V7.25l1.68-2.17v.24H35.69v-.7h2.53v.55l-1.6,2.12,0-.2h1.67v.7Z"/><path class="cls-3" d="M39.44,9.17l.69-1.63V8L38.6,4.62h1l.77,1.83a1,1,0,0,1,.1.23c0,.09,0,.18.07.26L40.36,7l.08-.23a2.31,2.31,0,0,0,.1-.28l.66-1.87h1L40.85,7.79,40.3,9.17Z"/><path class="cls-3" d="M24.93,10.35V9.59H27v.76Zm.6,2.41v-4h.85v4Z"/><path class="cls-3" d="M27.59,12.76V9.59h.82l0,1-.15-.21a1.22,1.22,0,0,1,.24-.45,1.16,1.16,0,0,1,.38-.32,1,1,0,0,1,.46-.11l.2,0,.16,0-.23.94-.17-.07a.75.75,0,0,0-.21,0,.66.66,0,0,0-.48.19.77.77,0,0,0-.2.5v1.64Z"/><path class="cls-3" d="M31.27,12.82a1.19,1.19,0,0,1-.71-.22,1.51,1.51,0,0,1-.51-.58,2,2,0,0,1-.18-.86,1.8,1.8,0,0,1,.19-.85,1.44,1.44,0,0,1,.51-.58,1.31,1.31,0,0,1,.74-.21,1.21,1.21,0,0,1,.43.07,1,1,0,0,1,.34.19,1.6,1.6,0,0,1,.25.27,1.43,1.43,0,0,1,.14.34l-.18,0V9.59h.85v3.17h-.86V12l.19,0a.88.88,0,0,1-.16.32,1.07,1.07,0,0,1-.26.26,1.55,1.55,0,0,1-.36.19A1.16,1.16,0,0,1,31.27,12.82Zm.23-.74a.82.82,0,0,0,.42-.11.79.79,0,0,0,.28-.32,1.07,1.07,0,0,0,.1-.49,1,1,0,0,0-.1-.47.73.73,0,0,0-.28-.32.74.74,0,0,0-.42-.12.73.73,0,0,0-.41.12.88.88,0,0,0-.28.32,1.16,1.16,0,0,0-.1.47,1.22,1.22,0,0,0,.1.49,1,1,0,0,0,.28.32A.81.81,0,0,0,31.5,12.08Z"/><path class="cls-3" d="M34,12.76V9.59h.81l0,.64-.17.08a.88.88,0,0,1,.24-.4,1.2,1.2,0,0,1,.41-.28,1.25,1.25,0,0,1,.5-.11,1.21,1.21,0,0,1,.6.14.85.85,0,0,1,.37.44,1.87,1.87,0,0,1,.12.72v1.94h-.85V10.88a1,1,0,0,0-.06-.36.42.42,0,0,0-.18-.21.48.48,0,0,0-.3-.06.76.76,0,0,0-.27.05.57.57,0,0,0-.21.13.52.52,0,0,0-.14.19.59.59,0,0,0,0,.23v1.91H34Z"/><path class="cls-3" d="M37.59,12.76v-.54l1.68-2.17v.24H37.59v-.7h2.54v.55l-1.61,2.12,0-.2h1.67v.7Z"/><path class="cls-3" d="M42,12.82a1.19,1.19,0,0,1-.71-.22A1.6,1.6,0,0,1,40.8,12a2,2,0,0,1-.18-.86,1.8,1.8,0,0,1,.19-.85,1.44,1.44,0,0,1,.51-.58,1.33,1.33,0,0,1,.74-.21,1.21,1.21,0,0,1,.43.07,1,1,0,0,1,.34.19,1.27,1.27,0,0,1,.25.27,1.11,1.11,0,0,1,.14.34l-.18,0V9.59h.85v3.17H43V12l.19,0a1,1,0,0,1-.15.32,1.11,1.11,0,0,1-.27.26,1.55,1.55,0,0,1-.36.19A1.16,1.16,0,0,1,42,12.82Zm.24-.74a.82.82,0,0,0,.42-.11.76.76,0,0,0,.27-.32,1.07,1.07,0,0,0,.1-.49,1,1,0,0,0-.1-.47.71.71,0,0,0-.27-.32.8.8,0,0,0-.84,0,.77.77,0,0,0-.27.32,1,1,0,0,0-.11.47,1.07,1.07,0,0,0,.11.49.84.84,0,0,0,.27.32A.82.82,0,0,0,42.26,12.08Z"/><path class="cls-3" d="M46.12,12.82a1.53,1.53,0,0,1-.82-.22,1.49,1.49,0,0,1-.56-.58,1.81,1.81,0,0,1,0-1.69,1.45,1.45,0,0,1,.56-.59,1.53,1.53,0,0,1,.82-.22,1.85,1.85,0,0,1,.78.16,1.2,1.2,0,0,1,.55.43l-.47.56a1,1,0,0,0-.21-.21.87.87,0,0,0-.27-.14.83.83,0,0,0-.74.06.89.89,0,0,0-.29.32.91.91,0,0,0-.11.47.9.9,0,0,0,.11.46.84.84,0,0,0,.3.32.8.8,0,0,0,.43.13.94.94,0,0,0,.3-.05.91.91,0,0,0,.26-.13,1.52,1.52,0,0,0,.22-.22l.47.56a1.46,1.46,0,0,1-.57.42A1.79,1.79,0,0,1,46.12,12.82Z"/><path class="cls-3" d="M47.7,10.35V9.59h2.1v.76Zm.6,2.41v-4h.85v4Z"/></g><g class="cls-2"><path class="cls-3" d="M16.24,3.08A5.41,5.41,0,0,0,10.83,8.5,5.27,5.27,0,0,0,11.44,11a2,2,0,0,1,.07-.67c.62-2.09,4.64-3.23,10.06-2.83A5.43,5.43,0,0,0,16.24,3.08Zm2.93,3.73-2.9,0-.17.46-1.76.24.4-2.12,4.75,0Z"/><path class="cls-3" d="M22.39,7.85l-.73.65a5.41,5.41,0,0,1-9.1,4,2.4,2.4,0,0,1,0-1.16,3,3,0,0,1,1.32-1.7L13.66,11l4.7,0,.3-1.39-3-.11.12-.83a19.24,19.24,0,0,1,5.83-.82Z"/></g></g></g></svg>