<svg xmlns="http://www.w3.org/2000/svg" viewBox="0 0 23.34 21.87"><defs><style>.cls-1{opacity:0.85;}.cls-2{fill:#339cd7;}</style></defs><g id="Layer_2" data-name="Layer 2"><g id="Layer_1-2" data-name="Layer 1"><g class="cls-1"><path class="cls-2" d="M10.93,0A10.93,10.93,0,0,0,0,10.93a10.82,10.82,0,0,0,1.23,5,4,4,0,0,1,.16-1.35C2.62,10.4,10.74,8.1,21.68,8.9A10.94,10.94,0,0,0,10.93,0Zm5.91,7.54L11,7.56l-.33.93L7.09,9,7.9,4.71l9.59-.09Z"/><path class="cls-2" d="M23.34,9.63l-1.47,1.3a10.93,10.93,0,0,1-18.38,8,5,5,0,0,1,0-2.34,6.16,6.16,0,0,1,2.67-3.45L5.72,16,15.21,16l.59-2.8-6-.21L10,11.29A38.79,38.79,0,0,1,21.79,9.63Z"/></g></g></g></svg>